<?xml version="1.0" encoding="UTF-8" standalone="no"?>
<!DOCTYPE svg PUBLIC "-//W3C//DTD SVG 1.1//EN"
 "http://www.w3.org/Graphics/SVG/1.1/DTD/svg11.dtd">
<!-- Generated by graphviz version 14.1.5 (20260411.2331)
 -->
<!-- Title: MyGraph Pages: 1 -->
<svg width="601pt" height="332pt"
 viewBox="0.00 0.00 601.00 332.00" xmlns="http://www.w3.org/2000/svg" xmlns:xlink="http://www.w3.org/1999/xlink">
<g id="graph0" class="graph" transform="scale(1 1) rotate(0) translate(4 328)">
<title>MyGraph</title>
<polygon fill="white" stroke="none" points="-4,4 -4,-328 596.96,-328 596.96,4 -4,4"/>
<!-- EitherUnit -->
<g id="node1" class="node">
<title>EitherUnit</title>
<ellipse fill="none" stroke="black" cx="430.61" cy="-234" rx="42.14" ry="18"/>
<text xml:space="preserve" text-anchor="middle" x="430.61" y="-228.95" font-family="Times,serif" font-size="14.00">Either ()</text>
</g>
<!-- Maybe -->
<g id="node9" class="node">
<title>Maybe</title>
<ellipse fill="none" stroke="black" cx="436.61" cy="-162" rx="37.02" ry="18"/>
<text xml:space="preserve" text-anchor="middle" x="436.61" y="-156.95" font-family="Times,serif" font-size="14.00">Maybe</text>
</g>
<!-- EitherUnit&#45;&gt;Maybe -->
<g id="edge15" class="edge">
<title>EitherUnit&#45;&gt;Maybe</title>
<path fill="none" stroke="black" d="M426.18,-215.7C426.05,-208.32 426.56,-199.52 427.55,-191.25"/>
<polygon fill="black" stroke="black" points="430.98,-192.01 429.02,-181.6 424.06,-190.96 430.98,-192.01"/>
</g>
<!-- Function -->
<g id="node2" class="node">
<title>Function</title>
<ellipse fill="none" stroke="black" cx="226.61" cy="-162" rx="32.93" ry="18"/>
<text xml:space="preserve" text-anchor="middle" x="226.61" y="-156.95" font-family="Times,serif" font-size="14.00">(&#45;&gt;) b</text>
</g>
<!-- UnitFunction -->
<g id="node3" class="node">
<title>UnitFunction</title>
<ellipse fill="none" stroke="black" cx="141.61" cy="-162" rx="34.46" ry="18"/>
<text xml:space="preserve" text-anchor="middle" x="141.61" y="-156.95" font-family="Times,serif" font-size="14.00">(&#45;&gt;) ()</text>
</g>
<!-- Identity -->
<g id="node7" class="node">
<title>Identity</title>
<ellipse fill="none" stroke="black" cx="226.61" cy="-234" rx="39.58" ry="18"/>
<text xml:space="preserve" text-anchor="middle" x="226.61" y="-228.95" font-family="Times,serif" font-size="14.00">Identity</text>
</g>
<!-- UnitFunction&#45;&gt;Identity -->
<g id="edge13" class="edge">
<title>UnitFunction&#45;&gt;Identity</title>
<path fill="none" stroke="black" d="M163.23,-176.33C175.78,-185.59 191.4,-198.18 204.08,-209.14"/>
<polygon fill="black" stroke="black" points="201.75,-211.76 211.56,-215.76 206.39,-206.52 201.75,-211.76"/>
</g>
<!-- VoidFunction -->
<g id="node4" class="node">
<title>VoidFunction</title>
<ellipse fill="none" stroke="black" cx="541.61" cy="-162" rx="45.21" ry="18"/>
<text xml:space="preserve" text-anchor="middle" x="541.61" y="-156.95" font-family="Times,serif" font-size="14.00">(&#45;&gt;) Void</text>
</g>
<!-- EmptyBox -->
<g id="node8" class="node">
<title>EmptyBox</title>
<ellipse fill="none" stroke="black" cx="541.61" cy="-234" rx="51.35" ry="18"/>
<text xml:space="preserve" text-anchor="middle" x="541.61" y="-228.95" font-family="Times,serif" font-size="14.00">EmptyBox</text>
</g>
<!-- VoidFunction&#45;&gt;EmptyBox -->
<g id="edge5" class="edge">
<title>VoidFunction&#45;&gt;EmptyBox</title>
<path fill="none" stroke="black" d="M547.51,-180.1C548.27,-187.37 548.52,-196.04 548.26,-204.24"/>
<polygon fill="black" stroke="black" points="544.77,-203.98 547.62,-214.19 551.76,-204.43 544.77,-203.98"/>
</g>
<!-- EnumFunction -->
<g id="node5" class="node">
<title>EnumFunction</title>
<ellipse fill="none" stroke="black" cx="436.61" cy="-18" rx="77.97" ry="18"/>
<text xml:space="preserve" text-anchor="middle" x="436.61" y="-12.95" font-family="Times,serif" font-size="14.00">Enum e =&gt; (&#45;&gt;) e</text>
</g>
<!-- List -->
<g id="node11" class="node">
<title>List</title>
<ellipse fill="none" stroke="black" cx="436.61" cy="-90" rx="27" ry="18"/>
<text xml:space="preserve" text-anchor="middle" x="436.61" y="-84.95" font-family="Times,serif" font-size="14.00">List</text>
</g>
<!-- EnumFunction&#45;&gt;List -->
<g id="edge17" class="edge">
<title>EnumFunction&#45;&gt;List</title>
<path fill="none" stroke="black" d="M442.52,-36.28C443.28,-43.6 443.53,-52.34 443.25,-60.57"/>
<polygon fill="black" stroke="black" points="439.76,-60.33 442.59,-70.54 446.75,-60.8 439.76,-60.33"/>
</g>
<!-- InitialFunctor -->
<g id="node6" class="node">
<title>InitialFunctor</title>
<ellipse fill="none" stroke="black" cx="381.61" cy="-306" rx="61.59" ry="18"/>
<text xml:space="preserve" text-anchor="middle" x="381.61" y="-300.95" font-family="Times,serif" font-size="14.00">InitialFunctor</text>
</g>
<!-- InitialFunctor&#45;&gt;Identity -->
<g id="edge1" class="edge">
<title>InitialFunctor&#45;&gt;Identity</title>
<path fill="none" stroke="black" d="M349.12,-290.33C324.39,-279.16 290.29,-263.76 264.35,-252.04"/>
<polygon fill="black" stroke="black" points="266.07,-248.98 255.52,-248.06 263.19,-255.36 266.07,-248.98"/>
</g>
<!-- InitialFunctor&#45;&gt;EmptyBox -->
<g id="edge2" class="edge">
<title>InitialFunctor&#45;&gt;EmptyBox</title>
<path fill="none" stroke="black" d="M414.76,-290.5C439.46,-279.69 473.36,-264.86 499.9,-253.25"/>
<polygon fill="black" stroke="black" points="501.26,-256.47 509.02,-249.26 498.45,-250.06 501.26,-256.47"/>
</g>
<!-- Identity&#45;&gt;Function -->
<g id="edge11" class="edge">
<title>Identity&#45;&gt;Function</title>
<path fill="none" stroke="black" d="M226.61,-215.7C226.61,-208.41 226.61,-199.73 226.61,-191.54"/>
<polygon fill="black" stroke="black" points="230.11,-191.62 226.61,-181.62 223.11,-191.62 230.11,-191.62"/>
</g>
<!-- Identity&#45;&gt;UnitFunction -->
<g id="edge12" class="edge">
<title>Identity&#45;&gt;UnitFunction</title>
<path fill="none" stroke="black" d="M203.86,-218.83C191.31,-209.51 175.94,-197.09 163.53,-186.33"/>
<polygon fill="black" stroke="black" points="166.04,-183.87 156.24,-179.86 161.4,-189.11 166.04,-183.87"/>
</g>
<!-- Identity&#45;&gt;Maybe -->
<g id="edge3" class="edge">
<title>Identity&#45;&gt;Maybe</title>
<path fill="none" stroke="black" d="M258.8,-223.03C291.96,-212.66 345.09,-195.76 390.61,-180 392.81,-179.24 395.07,-178.45 397.34,-177.64"/>
<polygon fill="black" stroke="black" points="398.33,-181 406.54,-174.31 395.95,-174.42 398.33,-181"/>
</g>
<!-- NonEmpty -->
<g id="node10" class="node">
<title>NonEmpty</title>
<ellipse fill="none" stroke="black" cx="329.61" cy="-162" rx="51.86" ry="18"/>
<text xml:space="preserve" text-anchor="middle" x="329.61" y="-156.95" font-family="Times,serif" font-size="14.00">NonEmpty</text>
</g>
<!-- Identity&#45;&gt;NonEmpty -->
<g id="edge7" class="edge">
<title>Identity&#45;&gt;NonEmpty</title>
<path fill="none" stroke="black" d="M247.95,-218.5C262.34,-208.72 281.56,-195.65 297.75,-184.65"/>
<polygon fill="black" stroke="black" points="299.31,-187.82 305.62,-179.31 295.38,-182.03 299.31,-187.82"/>
</g>
<!-- Pair -->
<g id="node12" class="node">
<title>Pair</title>
<ellipse fill="none" stroke="black" cx="62.61" cy="-162" rx="27" ry="18"/>
<text xml:space="preserve" text-anchor="middle" x="62.61" y="-156.95" font-family="Times,serif" font-size="14.00">Pair</text>
</g>
<!-- Identity&#45;&gt;Pair -->
<g id="edge10" class="edge">
<title>Identity&#45;&gt;Pair</title>
<path fill="none" stroke="black" d="M197.46,-221.4C171.41,-210.92 132.26,-194.9 98.61,-180 97.3,-179.42 95.96,-178.82 94.61,-178.21"/>
<polygon fill="black" stroke="black" points="96.16,-175.07 85.61,-174.05 93.22,-181.42 96.16,-175.07"/>
</g>
<!-- EmptyBox&#45;&gt;VoidFunction -->
<g id="edge4" class="edge">
<title>EmptyBox&#45;&gt;VoidFunction</title>
<path fill="none" stroke="black" d="M535.7,-215.7C534.94,-208.41 534.7,-199.73 534.96,-191.54"/>
<polygon fill="black" stroke="black" points="538.45,-191.82 535.62,-181.61 531.47,-191.36 538.45,-191.82"/>
</g>
<!-- EmptyBox&#45;&gt;Maybe -->
<g id="edge6" class="edge">
<title>EmptyBox&#45;&gt;Maybe</title>
<path fill="none" stroke="black" d="M518.57,-217.64C503.43,-207.55 483.46,-194.23 467.02,-183.27"/>
<polygon fill="black" stroke="black" points="469.34,-180.61 459.07,-177.97 465.45,-186.43 469.34,-180.61"/>
</g>
<!-- Maybe&#45;&gt;EitherUnit -->
<g id="edge14" class="edge">
<title>Maybe&#45;&gt;EitherUnit</title>
<path fill="none" stroke="black" d="M441.04,-180.28C441.17,-187.69 440.66,-196.54 439.66,-204.86"/>
<polygon fill="black" stroke="black" points="436.23,-204.14 438.17,-214.56 443.14,-205.2 436.23,-204.14"/>
</g>
<!-- Maybe&#45;&gt;List -->
<g id="edge8" class="edge">
<title>Maybe&#45;&gt;List</title>
<path fill="none" stroke="black" d="M436.61,-143.7C436.61,-136.41 436.61,-127.73 436.61,-119.54"/>
<polygon fill="black" stroke="black" points="440.11,-119.62 436.61,-109.62 433.11,-119.62 440.11,-119.62"/>
</g>
<!-- NonEmpty&#45;&gt;List -->
<g id="edge9" class="edge">
<title>NonEmpty&#45;&gt;List</title>
<path fill="none" stroke="black" d="M353.09,-145.64C369.34,-135.01 391.06,-120.8 408.27,-109.54"/>
<polygon fill="black" stroke="black" points="410.09,-112.53 416.54,-104.13 406.26,-106.67 410.09,-112.53"/>
</g>
<!-- InfListAndNat -->
<g id="node14" class="node">
<title>InfListAndNat</title>
<ellipse fill="none" stroke="black" cx="301.61" cy="-90" rx="65.17" ry="18"/>
<text xml:space="preserve" text-anchor="middle" x="301.61" y="-84.95" font-family="Times,serif" font-size="14.00">InfListAndNat</text>
</g>
<!-- NonEmpty&#45;&gt;InfListAndNat -->
<g id="edge19" class="edge">
<title>NonEmpty&#45;&gt;InfListAndNat</title>
<path fill="none" stroke="black" d="M322.69,-143.7C319.67,-136.15 316.06,-127.12 312.68,-118.68"/>
<polygon fill="black" stroke="black" points="315.98,-117.49 309.02,-109.51 309.48,-120.09 315.98,-117.49"/>
</g>
<!-- List&#45;&gt;EnumFunction -->
<g id="edge18" class="edge">
<title>List&#45;&gt;EnumFunction</title>
<path fill="none" stroke="black" d="M430.73,-72.05C429.95,-64.68 429.69,-55.84 429.97,-47.51"/>
<polygon fill="black" stroke="black" points="433.44,-47.99 430.6,-37.79 426.46,-47.54 433.44,-47.99"/>
</g>
<!-- Discriminator -->
<g id="node13" class="node">
<title>Discriminator</title>
<ellipse fill="none" stroke="black" cx="62.61" cy="-90" rx="62.61" ry="18"/>
<text xml:space="preserve" text-anchor="middle" x="62.61" y="-84.95" font-family="Times,serif" font-size="14.00">Discriminator</text>
</g>
<!-- Pair&#45;&gt;Discriminator -->
<g id="edge16" class="edge">
<title>Pair&#45;&gt;Discriminator</title>
<path fill="none" stroke="black" d="M62.61,-143.7C62.61,-136.41 62.61,-127.73 62.61,-119.54"/>
<polygon fill="black" stroke="black" points="66.11,-119.62 62.61,-109.62 59.11,-119.62 66.11,-119.62"/>
</g>
<!-- MealyAndNat -->
<g id="node15" class="node">
<title>MealyAndNat</title>
<ellipse fill="none" stroke="black" cx="276.61" cy="-18" rx="64.15" ry="18"/>
<text xml:space="preserve" text-anchor="middle" x="276.61" y="-12.95" font-family="Times,serif" font-size="14.00">MealyAndNat</text>
</g>
<!-- InfListAndNat&#45;&gt;MealyAndNat -->
<g id="edge20" class="edge">
<title>InfListAndNat&#45;&gt;MealyAndNat</title>
<path fill="none" stroke="black" d="M295.43,-71.7C292.74,-64.15 289.51,-55.12 286.5,-46.68"/>
<polygon fill="black" stroke="black" points="289.89,-45.77 283.23,-37.53 283.3,-48.12 289.89,-45.77"/>
</g>
</g>
</svg>
